<svg width="18" height="18" viewBox="0 0 18 18" fill="none" xmlns="http://www.w3.org/2000/svg">
<path d="M4.21924 13.5H2.53076C2.3757 13.5 2.25 13.6257 2.25 13.7808V15.4692C2.25 15.6243 2.3757 15.75 2.53076 15.75H4.21924C4.3743 15.75 4.5 15.6243 4.5 15.4692V13.7808C4.5 13.6257 4.3743 13.5 4.21924 13.5Z" fill="#3C617F"/>
<path d="M9.84424 13.5H8.15576C8.0007 13.5 7.875 13.6257 7.875 13.7808V15.4692C7.875 15.6243 8.0007 15.75 8.15576 15.75H9.84424C9.9993 15.75 10.125 15.6243 10.125 15.4692V13.7808C10.125 13.6257 9.9993 13.5 9.84424 13.5Z" fill="#3C617F"/>
<path d="M15.4692 13.5H13.7808C13.6257 13.5 13.5 13.6257 13.5 13.7808V15.4692C13.5 15.6243 13.6257 15.75 13.7808 15.75H15.4692C15.6243 15.75 15.75 15.6243 15.75 15.4692V13.7808C15.75 13.6257 15.6243 13.5 15.4692 13.5Z" fill="#3C617F"/>
<path d="M4.21924 7.875H2.53076C2.3757 7.875 2.25 8.0007 2.25 8.15576V9.84424C2.25 9.9993 2.3757 10.125 2.53076 10.125H4.21924C4.3743 10.125 4.5 9.9993 4.5 9.84424V8.15576C4.5 8.0007 4.3743 7.875 4.21924 7.875Z" fill="#3C617F"/>
<path d="M9.84424 7.875H8.15576C8.0007 7.875 7.875 8.0007 7.875 8.15576V9.84424C7.875 9.9993 8.0007 10.125 8.15576 10.125H9.84424C9.9993 10.125 10.125 9.9993 10.125 9.84424V8.15576C10.125 8.0007 9.9993 7.875 9.84424 7.875Z" fill="#3C617F"/>
<path d="M15.4692 7.875H13.7808C13.6257 7.875 13.5 8.0007 13.5 8.15576V9.84424C13.5 9.9993 13.6257 10.125 13.7808 10.125H15.4692C15.6243 10.125 15.75 9.9993 15.75 9.84424V8.15576C15.75 8.0007 15.6243 7.875 15.4692 7.875Z" fill="#3C617F"/>
<path d="M4.21924 2.25H2.53076C2.3757 2.25 2.25 2.3757 2.25 2.53076V4.21924C2.25 4.3743 2.3757 4.5 2.53076 4.5H4.21924C4.3743 4.5 4.5 4.3743 4.5 4.21924V2.53076C4.5 2.3757 4.3743 2.25 4.21924 2.25Z" fill="#3C617F"/>
<path d="M9.84424 2.25H8.15576C8.0007 2.25 7.875 2.3757 7.875 2.53076V4.21924C7.875 4.3743 8.0007 4.5 8.15576 4.5H9.84424C9.9993 4.5 10.125 4.3743 10.125 4.21924V2.53076C10.125 2.3757 9.9993 2.25 9.84424 2.25Z" fill="#3C617F"/>
<path d="M15.4692 2.25H13.7808C13.6257 2.25 13.5 2.3757 13.5 2.53076V4.21924C13.5 4.3743 13.6257 4.5 13.7808 4.5H15.4692C15.6243 4.5 15.75 4.3743 15.75 4.21924V2.53076C15.75 2.3757 15.6243 2.25 15.4692 2.25Z" fill="#3C617F"/>
</svg>
