<svg width="16" height="16" viewBox="0 0 16 16" fill="none" xmlns="http://www.w3.org/2000/svg">
<path d="M8 0.823975C3.85788 0.823975 0.5 4.18185 0.5 8.32397C0.5 12.4661 3.85788 15.824 8 15.824C12.1421 15.824 15.5 12.4661 15.5 8.32397C15.5 4.18185 12.1422 0.823975 8 0.823975ZM8 15.074C4.27806 15.074 1.25 12.0459 1.25 8.32397C1.25 4.60203 4.27806 1.57397 8 1.57397C11.7219 1.57397 14.75 4.60199 14.75 8.32397C14.75 12.046 11.722 15.074 8 15.074ZM9.125 11.6963C9.125 11.9034 8.95713 12.0713 8.75 12.0713H8.03058C8.02596 12.0715 8.02211 12.074 8.01744 12.074H7.9826C7.97793 12.074 7.97409 12.0715 7.96946 12.0713H7.24999C7.0429 12.0713 6.87499 11.9034 6.87499 11.6963C6.87499 11.4892 7.0429 11.3213 7.24999 11.3213H7.62499V6.82132H7.24999C7.0429 6.82132 6.87499 6.65341 6.87499 6.44632C6.87499 6.23923 7.0429 6.07132 7.24999 6.07132H7.99999C8.00467 6.07132 8.00851 6.07379 8.01313 6.07397H8.01744C8.21492 6.07397 8.375 6.23405 8.375 6.43154V11.3213H8.75C8.95713 11.3213 9.125 11.4892 9.125 11.6963ZM7.25 4.94897C7.25 4.63829 7.50186 4.38647 7.8125 4.38647C8.12319 4.38647 8.375 4.63829 8.375 4.94897C8.375 5.25961 8.12319 5.51147 7.8125 5.51147C7.50186 5.51147 7.25 5.25961 7.25 4.94897Z" fill="#6B879E"/>
</svg>
