<svg width="18" height="18" viewBox="0 0 18 18" fill="none" xmlns="http://www.w3.org/2000/svg">
<path d="M15.9903 3.9375C16.3753 3.93774 16.6874 4.27602 16.6876 4.69336V9.23145C16.6876 9.64899 16.3754 9.98804 15.9903 9.98828C15.605 9.98828 15.2921 9.64914 15.2921 9.23145V6.49609L10.545 11.4766C10.2713 11.7637 9.83578 11.7597 9.56648 11.4678L7.0948 8.78906L2.87898 13.3584C2.60652 13.6538 2.16413 13.6538 1.89167 13.3584C1.61955 13.063 1.61933 12.5843 1.89167 12.2891L6.60163 7.18457C6.87409 6.88924 7.31551 6.88922 7.58796 7.18457L10.0675 9.87207L14.2833 5.4502H11.8038C11.4185 5.45016 11.1065 5.11103 11.1065 4.69336C11.1067 4.27589 11.4186 3.93754 11.8038 3.9375H15.9903Z" fill="#9CD086"/>
</svg>
