<svg width="18" height="18" viewBox="0 0 18 18" fill="none" xmlns="http://www.w3.org/2000/svg">
<path d="M15.9903 13.5C16.3754 13.4998 16.6874 13.1615 16.6876 12.7441V8.20703C16.6876 7.78951 16.3755 7.45037 15.9903 7.4502C15.605 7.4502 15.2921 7.78941 15.2921 8.20703V10.9414L10.545 5.96191C10.2713 5.67487 9.83577 5.67882 9.56647 5.9707L7.09479 8.64941L2.87897 4.08008C2.60651 3.78477 2.16412 3.78477 1.89166 4.08008C1.61939 4.37529 1.61951 4.85412 1.89166 5.14941L6.60163 10.2539C6.87408 10.549 7.31555 10.5491 7.58795 10.2539L10.0674 7.56641L14.2833 11.9873H11.8038C11.4185 11.9874 11.1065 12.3266 11.1065 12.7441C11.1067 13.1616 11.4186 13.4999 11.8038 13.5H15.9903Z" fill="#FF7081"/>
</svg>
